<svg width="1704" height="254" viewBox="0 0 1704 254" fill="none" xmlns="http://www.w3.org/2000/svg">
<rect x="0.5" y="0.5" width="1703" height="253" rx="19.5" fill="#4F4949" stroke="white"/>
<path d="M638.774 111.189C638.49 108.324 637.271 106.099 635.116 104.513C632.962 102.927 630.038 102.134 626.345 102.134C623.836 102.134 621.717 102.489 619.989 103.199C618.26 103.885 616.935 104.844 616.011 106.075C615.112 107.306 614.662 108.703 614.662 110.266C614.615 111.568 614.887 112.704 615.479 113.675C616.094 114.645 616.935 115.486 618 116.196C619.065 116.883 620.296 117.486 621.693 118.007C623.09 118.504 624.581 118.93 626.168 119.286L632.702 120.848C635.874 121.558 638.786 122.505 641.438 123.689C644.089 124.873 646.385 126.329 648.327 128.057C650.268 129.785 651.771 131.821 652.837 134.165C653.926 136.509 654.482 139.196 654.506 142.226C654.482 146.677 653.346 150.536 651.097 153.803C648.871 157.046 645.652 159.567 641.438 161.366C637.247 163.142 632.193 164.03 626.274 164.03C620.403 164.03 615.289 163.13 610.933 161.331C606.601 159.532 603.215 156.868 600.777 153.341C598.362 149.79 597.096 145.398 596.977 140.166H611.857C612.022 142.605 612.721 144.641 613.952 146.274C615.206 147.884 616.875 149.103 618.959 149.932C621.066 150.737 623.445 151.139 626.097 151.139C628.701 151.139 630.962 150.76 632.879 150.003C634.821 149.245 636.324 148.192 637.389 146.842C638.455 145.493 638.987 143.942 638.987 142.19C638.987 140.557 638.502 139.184 637.531 138.071C636.584 136.958 635.188 136.011 633.341 135.23C631.518 134.449 629.281 133.739 626.629 133.099L618.71 131.111C612.579 129.619 607.737 127.287 604.186 124.115C600.635 120.943 598.871 116.67 598.895 111.295C598.871 106.892 600.043 103.045 602.411 99.7543C604.802 96.4635 608.08 93.8949 612.247 92.0483C616.414 90.2017 621.149 89.2784 626.452 89.2784C631.849 89.2784 636.561 90.2017 640.585 92.0483C644.634 93.8949 647.782 96.4635 650.031 99.7543C652.28 103.045 653.44 106.857 653.511 111.189H638.774ZM664.564 163V108.455H679.692V163H664.564ZM672.164 101.423C669.915 101.423 667.985 100.678 666.375 99.1861C664.789 97.6709 663.996 95.8598 663.996 93.7528C663.996 91.6695 664.789 89.8821 666.375 88.3906C667.985 86.8755 669.915 86.1179 672.164 86.1179C674.413 86.1179 676.33 86.8755 677.917 88.3906C679.526 89.8821 680.331 91.6695 680.331 93.7528C680.331 95.8598 679.526 97.6709 677.917 99.1861C676.33 100.678 674.413 101.423 672.164 101.423ZM716.384 184.591C711.484 184.591 707.281 183.916 703.778 182.567C700.298 181.241 697.528 179.43 695.468 177.134C693.408 174.837 692.071 172.257 691.455 169.392L705.447 167.51C705.873 168.599 706.548 169.617 707.471 170.564C708.394 171.511 709.613 172.268 711.129 172.837C712.667 173.429 714.538 173.724 716.739 173.724C720.03 173.724 722.741 172.92 724.871 171.31C727.026 169.723 728.103 167.06 728.103 163.32V153.341H727.464C726.801 154.856 725.807 156.288 724.481 157.638C723.155 158.987 721.451 160.088 719.367 160.94C717.284 161.793 714.798 162.219 711.91 162.219C707.814 162.219 704.085 161.272 700.724 159.378C697.386 157.46 694.722 154.536 692.734 150.607C690.769 146.653 689.786 141.658 689.786 135.621C689.786 129.442 690.792 124.281 692.805 120.138C694.817 115.995 697.492 112.893 700.83 110.834C704.192 108.774 707.873 107.744 711.874 107.744C714.928 107.744 717.485 108.265 719.545 109.307C721.604 110.325 723.262 111.603 724.516 113.142C725.795 114.657 726.777 116.149 727.464 117.616H728.032V108.455H743.053V163.533C743.053 168.173 741.917 172.055 739.644 175.18C737.371 178.305 734.223 180.649 730.198 182.212C726.197 183.798 721.593 184.591 716.384 184.591ZM716.704 150.855C719.142 150.855 721.202 150.251 722.883 149.044C724.587 147.813 725.889 146.061 726.789 143.788C727.712 141.492 728.174 138.746 728.174 135.55C728.174 132.354 727.724 129.584 726.825 127.24C725.925 124.873 724.623 123.038 722.918 121.736C721.214 120.434 719.142 119.783 716.704 119.783C714.218 119.783 712.123 120.457 710.418 121.807C708.714 123.133 707.424 124.979 706.548 127.347C705.672 129.714 705.234 132.448 705.234 135.55C705.234 138.698 705.672 141.421 706.548 143.717C707.447 145.99 708.737 147.754 710.418 149.009C712.123 150.24 714.218 150.855 716.704 150.855ZM770.219 131.466V163H755.092V108.455H769.509V118.078H770.148C771.356 114.906 773.38 112.396 776.221 110.55C779.062 108.679 782.506 107.744 786.555 107.744C790.343 107.744 793.645 108.573 796.462 110.23C799.28 111.887 801.469 114.255 803.032 117.332C804.594 120.386 805.376 124.032 805.376 128.27V163H790.248V130.969C790.272 127.631 789.419 125.027 787.691 123.156C785.963 121.262 783.584 120.315 780.553 120.315C778.517 120.315 776.718 120.753 775.156 121.629C773.617 122.505 772.409 123.784 771.533 125.464C770.681 127.122 770.243 129.122 770.219 131.466ZM851.203 163L836.359 108.455H851.665L860.116 145.102H860.614L869.42 108.455H884.442L893.391 144.889H893.852L902.162 108.455H917.432L902.624 163H886.608L877.233 128.696H876.558L867.183 163H851.203ZM925.502 163V108.455H940.63V163H925.502ZM933.101 101.423C930.852 101.423 928.923 100.678 927.313 99.1861C925.727 97.6709 924.934 95.8598 924.934 93.7528C924.934 91.6695 925.727 89.8821 927.313 88.3906C928.923 86.8755 930.852 86.1179 933.101 86.1179C935.35 86.1179 937.268 86.8755 938.854 88.3906C940.464 89.8821 941.269 91.6695 941.269 93.7528C941.269 95.8598 940.464 97.6709 938.854 99.1861C937.268 100.678 935.35 101.423 933.101 101.423ZM981.761 108.455V119.818H948.913V108.455H981.761ZM956.37 95.3864H971.498V146.239C971.498 147.635 971.711 148.724 972.137 149.506C972.563 150.263 973.155 150.796 973.913 151.104C974.694 151.411 975.594 151.565 976.612 151.565C977.322 151.565 978.032 151.506 978.742 151.388C979.452 151.246 979.997 151.139 980.376 151.068L982.755 162.325C981.997 162.562 980.932 162.834 979.559 163.142C978.186 163.473 976.517 163.675 974.552 163.746C970.906 163.888 967.71 163.402 964.964 162.29C962.241 161.177 960.122 159.449 958.607 157.105C957.092 154.761 956.346 151.802 956.37 148.227V95.3864ZM1007.91 131.466V163H992.787V90.2727H1007.49V118.078H1008.13C1009.36 114.858 1011.35 112.337 1014.09 110.514C1016.84 108.668 1020.28 107.744 1024.43 107.744C1028.22 107.744 1031.52 108.573 1034.34 110.23C1037.18 111.864 1039.38 114.219 1040.94 117.297C1042.53 120.351 1043.31 124.009 1043.28 128.27V163H1028.16V130.969C1028.18 127.607 1027.33 124.991 1025.6 123.121C1023.89 121.25 1021.5 120.315 1018.43 120.315C1016.37 120.315 1014.54 120.753 1012.96 121.629C1011.39 122.505 1010.16 123.784 1009.26 125.464C1008.39 127.122 1007.94 129.122 1007.91 131.466ZM1126.84 113.781C1126.35 112.053 1125.65 110.526 1124.75 109.2C1123.85 107.851 1122.75 106.714 1121.44 105.791C1120.17 104.844 1118.7 104.122 1117.04 103.625C1115.41 103.128 1113.6 102.879 1111.61 102.879C1107.89 102.879 1104.62 103.803 1101.81 105.649C1099.01 107.496 1096.84 110.183 1095.27 113.71C1093.71 117.214 1092.93 121.499 1092.93 126.565C1092.93 131.632 1093.7 135.94 1095.24 139.491C1096.78 143.043 1098.95 145.753 1101.77 147.624C1104.59 149.47 1107.91 150.393 1111.75 150.393C1115.23 150.393 1118.2 149.778 1120.66 148.547C1123.15 147.292 1125.04 145.528 1126.35 143.256C1127.67 140.983 1128.33 138.296 1128.33 135.195L1131.46 135.656H1112.71V124.08H1143.14V133.241C1143.14 139.634 1141.79 145.126 1139.09 149.719C1136.39 154.288 1132.68 157.815 1127.94 160.301C1123.21 162.763 1117.79 163.994 1111.68 163.994C1104.86 163.994 1098.87 162.491 1093.71 159.484C1088.55 156.454 1084.52 152.157 1081.64 146.594C1078.77 141.007 1077.34 134.378 1077.34 126.707C1077.34 120.812 1078.19 115.557 1079.9 110.94C1081.62 106.3 1084.04 102.37 1087.14 99.1506C1090.24 95.9309 1093.85 93.4806 1097.97 91.7997C1102.09 90.1188 1106.55 89.2784 1111.36 89.2784C1115.48 89.2784 1119.31 89.8821 1122.87 91.0895C1126.42 92.2732 1129.56 93.9541 1132.31 96.1321C1135.08 98.3101 1137.34 100.902 1139.09 103.909C1140.85 106.892 1141.97 110.183 1142.47 113.781H1126.84ZM1157.83 163V108.455H1172.95V163H1157.83ZM1165.43 101.423C1163.18 101.423 1161.25 100.678 1159.64 99.1861C1158.05 97.6709 1157.26 95.8598 1157.26 93.7528C1157.26 91.6695 1158.05 89.8821 1159.64 88.3906C1161.25 86.8755 1163.18 86.1179 1165.43 86.1179C1167.67 86.1179 1169.59 86.8755 1171.18 88.3906C1172.79 89.8821 1173.59 91.6695 1173.59 93.7528C1173.59 95.8598 1172.79 97.6709 1171.18 99.1861C1169.59 100.678 1167.67 101.423 1165.43 101.423ZM1214.08 108.455V119.818H1181.24V108.455H1214.08ZM1188.69 95.3864H1203.82V146.239C1203.82 147.635 1204.04 148.724 1204.46 149.506C1204.89 150.263 1205.48 150.796 1206.24 151.104C1207.02 151.411 1207.92 151.565 1208.94 151.565C1209.65 151.565 1210.36 151.506 1211.07 151.388C1211.78 151.246 1212.32 151.139 1212.7 151.068L1215.08 162.325C1214.32 162.562 1213.26 162.834 1211.88 163.142C1210.51 163.473 1208.84 163.675 1206.88 163.746C1203.23 163.888 1200.03 163.402 1197.29 162.29C1194.57 161.177 1192.45 159.449 1190.93 157.105C1189.42 154.761 1188.67 151.802 1188.69 148.227V95.3864ZM1240.24 131.466V163H1225.11V90.2727H1239.81V118.078H1240.45C1241.68 114.858 1243.67 112.337 1246.42 110.514C1249.16 108.668 1252.61 107.744 1256.75 107.744C1260.54 107.744 1263.84 108.573 1266.66 110.23C1269.5 111.864 1271.7 114.219 1273.26 117.297C1274.85 120.351 1275.63 124.009 1275.61 128.27V163H1260.48V130.969C1260.5 127.607 1259.65 124.991 1257.92 123.121C1256.22 121.25 1253.83 120.315 1250.75 120.315C1248.69 120.315 1246.87 120.753 1245.28 121.629C1243.72 122.505 1242.49 123.784 1241.59 125.464C1240.71 127.122 1240.26 129.122 1240.24 131.466ZM1322.49 139.776V108.455H1337.62V163H1323.1V153.092H1322.53C1321.3 156.288 1319.25 158.857 1316.38 160.798C1313.54 162.74 1310.08 163.71 1305.98 163.71C1302.33 163.71 1299.13 162.882 1296.36 161.224C1293.59 159.567 1291.42 157.212 1289.86 154.158C1288.32 151.104 1287.54 147.446 1287.51 143.185V108.455H1302.64V140.486C1302.67 143.705 1303.53 146.25 1305.23 148.121C1306.94 149.991 1309.22 150.926 1312.09 150.926C1313.91 150.926 1315.61 150.512 1317.2 149.683C1318.79 148.831 1320.07 147.576 1321.04 145.919C1322.03 144.262 1322.52 142.214 1322.49 139.776ZM1350 163V90.2727H1365.13V117.616H1365.59C1366.26 116.149 1367.22 114.657 1368.47 113.142C1369.75 111.603 1371.41 110.325 1373.44 109.307C1375.5 108.265 1378.06 107.744 1381.11 107.744C1385.09 107.744 1388.76 108.786 1392.12 110.869C1395.48 112.929 1398.17 116.042 1400.18 120.209C1402.19 124.352 1403.2 129.548 1403.2 135.798C1403.2 141.883 1402.22 147.02 1400.25 151.21C1398.31 155.377 1395.66 158.537 1392.3 160.692C1388.96 162.822 1385.22 163.888 1381.08 163.888C1378.14 163.888 1375.64 163.402 1373.58 162.432C1371.55 161.461 1369.88 160.242 1368.58 158.774C1367.27 157.283 1366.28 155.779 1365.59 154.264H1364.92V163H1350ZM1364.81 135.727C1364.81 138.971 1365.26 141.8 1366.16 144.214C1367.06 146.629 1368.36 148.511 1370.07 149.861C1371.77 151.187 1373.84 151.849 1376.28 151.849C1378.75 151.849 1380.83 151.175 1382.53 149.825C1384.24 148.452 1385.53 146.558 1386.4 144.143C1387.3 141.705 1387.75 138.9 1387.75 135.727C1387.75 132.579 1387.32 129.809 1386.44 127.418C1385.56 125.027 1384.27 123.156 1382.57 121.807C1380.86 120.457 1378.77 119.783 1376.28 119.783C1373.82 119.783 1371.74 120.434 1370.03 121.736C1368.35 123.038 1367.06 124.884 1366.16 127.276C1365.26 129.667 1364.81 132.484 1364.81 135.727Z" fill="white"/>
<path fill-rule="evenodd" clip-rule="evenodd" d="M250.485 49.0001C208.801 49.0001 175 82.7938 175 124.485C175 157.835 196.629 186.13 226.621 196.111C230.394 196.81 231.779 194.474 231.779 192.48C231.779 190.681 231.709 184.734 231.676 178.426C210.676 182.993 206.245 169.52 206.245 169.52C202.811 160.796 197.864 158.475 197.864 158.475C191.015 153.79 198.38 153.886 198.38 153.886C205.96 154.419 209.951 161.666 209.951 161.666C216.684 173.205 227.61 169.869 231.917 167.94C232.595 163.063 234.551 159.731 236.71 157.846C219.944 155.939 202.319 149.465 202.319 120.541C202.319 112.301 205.267 105.566 210.096 100.28C209.313 98.3788 206.729 90.7013 210.827 80.3038C210.827 80.3038 217.168 78.2763 231.591 88.0426C237.612 86.3701 244.07 85.5313 250.485 85.5013C256.9 85.5313 263.363 86.3701 269.395 88.0426C283.802 78.2763 290.132 80.3038 290.132 80.3038C294.241 90.7013 291.657 98.3788 290.874 100.28C295.714 105.566 298.641 112.301 298.641 120.541C298.641 149.535 280.983 155.918 264.174 157.786C266.881 160.129 269.294 164.723 269.294 171.765C269.294 181.865 269.207 189.994 269.207 192.48C269.207 194.49 270.565 196.843 274.391 196.103C304.367 186.11 325.97 157.825 325.97 124.485C325.97 82.7938 292.174 49.0001 250.485 49.0001" fill="white"/>
<path d="M203.591 157.379C203.424 157.755 202.834 157.868 202.297 157.61C201.748 157.363 201.442 156.852 201.619 156.475C201.782 156.09 202.372 155.983 202.919 156.24C203.467 156.487 203.779 157.003 203.591 157.379" fill="white"/>
<path d="M206.648 160.79C206.288 161.123 205.583 160.968 205.107 160.441C204.612 159.915 204.521 159.21 204.886 158.872C205.257 158.538 205.94 158.695 206.433 159.221C206.928 159.753 207.025 160.451 206.648 160.79Z" fill="white"/>
<path d="M209.624 165.137C209.162 165.459 208.404 165.158 207.937 164.485C207.474 163.814 207.474 163.009 207.948 162.687C208.416 162.364 209.162 162.655 209.636 163.32C210.097 164.003 210.097 164.808 209.624 165.137" fill="white"/>
<path d="M213.702 169.337C213.288 169.793 212.407 169.671 211.762 169.048C211.102 168.44 210.918 167.576 211.332 167.12C211.752 166.662 212.638 166.791 213.288 167.408C213.943 168.016 214.143 168.886 213.702 169.337Z" fill="white"/>
<path d="M219.327 171.776C219.144 172.367 218.295 172.635 217.44 172.384C216.587 172.125 216.028 171.434 216.2 170.836C216.378 170.24 217.23 169.961 218.092 170.23C218.944 170.487 219.504 171.175 219.327 171.776" fill="white"/>
<path d="M225.505 172.228C225.526 172.85 224.801 173.366 223.903 173.378C223.001 173.399 222.27 172.894 222.26 172.281C222.26 171.653 222.97 171.143 223.871 171.126C224.768 171.109 225.505 171.61 225.505 172.228Z" fill="white"/>
<path d="M231.253 171.25C231.36 171.856 230.737 172.48 229.845 172.646C228.969 172.807 228.158 172.431 228.047 171.83C227.938 171.207 228.572 170.584 229.448 170.422C230.34 170.267 231.139 170.632 231.253 171.25Z" fill="white"/>
</svg>
